<svg fill="none" height="40" viewBox="0 0 40 40" width="40" xmlns="http://www.w3.org/2000/svg"><path d="m12.9997 3.3335h14c5.3333 0 9.6666 4.33333 9.6666 9.6667v14c0 2.5637-1.0184 5.0225-2.8313 6.8353-1.8128 1.8129-4.2716 2.8313-6.8353 2.8313h-14c-5.33336 0-9.66669-4.3333-9.66669-9.6666v-14c0-2.5638 1.01845-5.02255 2.8313-6.8354s4.27159-2.8313 6.83539-2.8313zm-.3334 3.33333c-1.5913 0-3.11738.63214-4.2426 1.75736s-1.75736 2.65131-1.75736 4.24261v14.6667c0 3.3167 2.68333 6 5.99996 6h14.6667c1.5913 0 3.1174-.6321 4.2426-1.7574 1.1253-1.1252 1.7574-2.6513 1.7574-4.2426v-14.6667c0-3.31664-2.6833-5.99997-6-5.99997zm16.0834 2.5c.5525 0 1.0824.21949 1.4731.61019.3907.39068.6102.92058.6102 1.47318 0 .5525-.2195 1.0824-.6102 1.4731s-.9206.6102-1.4731.6102c-.5526 0-1.0825-.2195-1.4732-.6102s-.6102-.9206-.6102-1.4731c0-.5526.2195-1.0825.6102-1.47318.3907-.3907.9206-.61019 1.4732-.61019zm-8.75 2.49997c2.2101 0 4.3297.878 5.8925 2.4408s2.4408 3.6824 2.4408 5.8926c0 2.2101-.878 4.3297-2.4408 5.8925s-3.6824 2.4408-5.8925 2.4408c-2.2102 0-4.3298-.878-5.8926-2.4408s-2.4408-3.6824-2.4408-5.8925c0-2.2102.878-4.3298 2.4408-5.8926s3.6824-2.4408 5.8926-2.4408zm0 3.3334c-1.3261 0-2.5979.5267-3.5356 1.4644-.9376.9377-1.4644 2.2095-1.4644 3.5356 0 1.326.5268 2.5978 1.4644 3.5355.9377.9377 2.2095 1.4645 3.5356 1.4645s2.5978-.5268 3.5355-1.4645 1.4645-2.2095 1.4645-3.5355c0-1.3261-.5268-2.5979-1.4645-3.5356s-2.2094-1.4644-3.5355-1.4644z" fill="#e9e0cf"/></svg>